<svg width="196" height="20" viewBox="0 0 196 20" fill="none" xmlns="http://www.w3.org/2000/svg">
<path d="M0.246094 1.00684H3.22461L8.05859 12.1152V16.6318H7.27734L3.22461 6.62207V19H0.246094V1.00684ZM13.8936 1.00684H16.8721V19H13.8936V6.62207L9.86523 16.6318H9.05957V12.1641L13.8936 1.00684ZM27.6875 5.15723C28.5827 5.20605 29.3965 5.42578 30.1289 5.81641C30.8613 6.19076 31.4717 6.69531 31.96 7.33008C32.4645 7.94857 32.8551 8.67285 33.1318 9.50293C33.4085 10.333 33.5469 11.2201 33.5469 12.1641C33.5469 13.1081 33.4004 13.9951 33.1074 14.8252C32.8307 15.639 32.4401 16.3551 31.9355 16.9736C31.431 17.5758 30.8125 18.0641 30.0801 18.4385C29.3477 18.8128 28.5501 19.0326 27.6875 19.0977V16.7539C28.5013 16.5749 29.1605 16.0622 29.665 15.2158C30.1859 14.3695 30.4463 13.3522 30.4463 12.1641C30.4463 11.5618 30.3812 11.0003 30.251 10.4795C30.137 9.94238 29.958 9.46224 29.7139 9.03906C29.4697 8.61589 29.1768 8.26595 28.835 7.98926C28.4932 7.71257 28.1107 7.53353 27.6875 7.45215V5.15723ZM20.876 12.1152C20.876 11.1712 21.0143 10.2923 21.291 9.47852C21.5677 8.66471 21.9583 7.95671 22.4629 7.35449C22.9837 6.736 23.6022 6.23958 24.3184 5.86523C25.0345 5.49089 25.8239 5.26302 26.6865 5.18164V7.45215C25.8727 7.63118 25.2217 8.14388 24.7334 8.99023C24.2451 9.83659 24.001 10.8538 24.001 12.042C24.001 12.6442 24.0579 13.2139 24.1719 13.751C24.3021 14.2881 24.4811 14.7682 24.709 15.1914C24.9368 15.6146 25.2135 15.9645 25.5391 16.2412C25.8809 16.5179 26.2633 16.6888 26.6865 16.7539V19.0977C25.7913 19.0326 24.9857 18.8128 24.2695 18.4385C23.5534 18.0479 22.943 17.5433 22.4385 16.9248C21.9339 16.3063 21.5433 15.582 21.2666 14.752C21.0062 13.9219 20.876 13.043 20.876 12.1152ZM48.8545 0.0302734V19H46.0469L45.876 17.3643V0.0302734H48.8545ZM36.501 11.9199C36.501 10.6504 36.6719 9.58431 37.0137 8.72168C37.3717 7.85905 37.8275 7.15918 38.3809 6.62207C38.9342 6.08496 39.5446 5.70247 40.2119 5.47461C40.8955 5.23047 41.5628 5.1084 42.2139 5.1084C42.7184 5.1084 43.1986 5.16536 43.6543 5.2793C44.11 5.39323 44.5169 5.55599 44.875 5.76758V8.35547C44.5983 8.0625 44.2891 7.8265 43.9473 7.64746C43.6055 7.46842 43.223 7.37891 42.7998 7.37891C42.2952 7.37891 41.8477 7.50911 41.457 7.76953C41.0664 8.01367 40.7327 8.35547 40.4561 8.79492C40.1956 9.23438 39.9922 9.73893 39.8457 10.3086C39.6992 10.8783 39.626 11.4886 39.626 12.1396C39.626 12.7907 39.7074 13.401 39.8701 13.9707C40.0329 14.5241 40.2526 15.0124 40.5293 15.4355C40.806 15.8587 41.1396 16.1924 41.5303 16.4365C41.9372 16.6807 42.3766 16.8027 42.8486 16.8027C43.6462 16.8027 44.3216 16.4854 44.875 15.8506V18.3896C44.4844 18.6012 44.0286 18.7803 43.5078 18.9268C43.0033 19.057 42.4661 19.1221 41.8965 19.1221C41.2454 19.1221 40.6025 19.0081 39.9678 18.7803C39.3493 18.5361 38.7959 18.1455 38.3076 17.6084C37.6891 16.9085 37.2334 16.0459 36.9404 15.0205C36.6475 13.9788 36.501 12.9453 36.501 11.9199ZM52.7119 9.16113C52.7119 8.54264 52.8258 7.98926 53.0537 7.50098C53.2816 6.99642 53.599 6.57324 54.0059 6.23145C54.4128 5.87337 54.8685 5.59668 55.373 5.40137C55.8939 5.18978 56.431 5.05957 56.9844 5.01074V7.45215C56.5612 7.53353 56.2275 7.70443 55.9834 7.96484C55.7555 8.22526 55.6416 8.59147 55.6416 9.06348C55.6416 9.4541 55.7637 9.77148 56.0078 10.0156C56.2682 10.2435 56.5938 10.4469 56.9844 10.626V13.2383C56.7077 13.1569 56.4229 13.0674 56.1299 12.9697C55.8532 12.8558 55.5765 12.7337 55.2998 12.6035C54.4372 12.1478 53.7861 11.6676 53.3467 11.1631C52.9235 10.6585 52.7119 9.99121 52.7119 9.16113ZM60.8662 8.13574C60.4268 7.90788 59.9548 7.73698 59.4502 7.62305C58.9619 7.50911 58.4736 7.43587 57.9854 7.40332V4.98633C58.7178 5.01888 59.3932 5.12467 60.0117 5.30371C60.6302 5.46647 61.2324 5.73503 61.8184 6.10938L60.8662 8.13574ZM54.0059 15.9238C54.3314 16.1517 54.7139 16.3633 55.1533 16.5586C55.609 16.7539 56.1787 16.8516 56.8623 16.8516H56.9844V19.1221C56.5775 19.1221 56.2031 19.1058 55.8613 19.0732C55.5195 19.057 55.1777 19.0081 54.8359 18.9268C54.5104 18.8291 54.1768 18.6989 53.835 18.5361C53.4932 18.3734 53.1351 18.1618 52.7607 17.9014L54.0059 15.9238ZM57.9854 11.0166C58.4736 11.1794 58.9701 11.3584 59.4746 11.5537C59.9792 11.749 60.4349 11.9932 60.8418 12.2861C61.265 12.5791 61.6068 12.9453 61.8672 13.3848C62.1439 13.8079 62.2822 14.3451 62.2822 14.9961C62.2822 15.6309 62.1683 16.1842 61.9404 16.6562C61.7126 17.1283 61.4033 17.5352 61.0127 17.877C60.6383 18.2188 60.1908 18.4873 59.6699 18.6826C59.1491 18.8779 58.5876 19.0081 57.9854 19.0732V16.7539C58.5387 16.6562 58.9619 16.4854 59.2549 16.2412C59.5641 15.9808 59.7188 15.639 59.7188 15.2158C59.7188 14.7926 59.5479 14.4671 59.2061 14.2393C58.8805 13.9951 58.4736 13.7835 57.9854 13.6045V11.0166ZM72.5117 5.1084C73.3906 5.18978 74.18 5.42578 74.8799 5.81641C75.596 6.20703 76.2064 6.71159 76.7109 7.33008C77.2155 7.94857 77.598 8.65658 77.8584 9.4541C78.1351 10.2516 78.2734 11.0817 78.2734 11.9443C78.2734 12.335 78.249 12.7256 78.2002 13.1162H69.8262V10.9678H75.4658C75.4658 10.5446 75.3926 10.1377 75.2461 9.74707C75.1159 9.35645 74.9124 8.99837 74.6357 8.67285C74.3753 8.33105 74.0661 8.04622 73.708 7.81836C73.3499 7.59049 72.9512 7.45215 72.5117 7.40332V5.1084ZM72.4141 16.7051C72.5931 16.7051 72.8128 16.6888 73.0732 16.6562C73.3499 16.6074 73.6348 16.5342 73.9277 16.4365C74.237 16.3226 74.5381 16.1842 74.8311 16.0215C75.1403 15.8587 75.4089 15.6634 75.6367 15.4355L76.7109 17.0713C76.1738 17.7386 75.5472 18.2432 74.8311 18.585C74.1149 18.9268 73.2035 19.0977 72.0967 19.0977C71.2015 19.0977 70.3633 18.9186 69.582 18.5605C68.8008 18.1862 68.1335 17.6816 67.5801 17.0469C67.0267 16.4121 66.5872 15.6715 66.2617 14.8252C65.9362 13.9788 65.7734 13.0674 65.7734 12.0908C65.7734 11.1631 65.9199 10.2842 66.2129 9.4541C66.5221 8.62402 66.9372 7.89974 67.458 7.28125C67.9788 6.64648 68.5811 6.13379 69.2646 5.74316C69.9645 5.35254 70.7132 5.13281 71.5107 5.08398V7.42773C70.9085 7.54167 70.4121 7.78581 70.0215 8.16016C69.6309 8.53451 69.3216 8.96582 69.0938 9.4541C68.8822 9.92611 68.7275 10.4144 68.6299 10.9189C68.5485 11.4235 68.5078 11.8548 68.5078 12.2129C68.5078 12.8477 68.5811 13.4417 68.7275 13.9951C68.8903 14.5322 69.1344 15.0042 69.46 15.4111C69.7855 15.8018 70.1842 16.1191 70.6562 16.3633C71.1445 16.5911 71.7305 16.7051 72.4141 16.7051ZM84.9629 5.23047L85.2803 6.62207V19H82.3262V5.23047H84.9629ZM92.5801 6.74414C92.8568 7.02083 93.0684 7.34635 93.2148 7.7207C93.3776 8.07878 93.4915 8.46126 93.5566 8.86816C93.638 9.25879 93.6868 9.65755 93.7031 10.0645C93.7194 10.4714 93.7275 10.8701 93.7275 11.2607V18.5117V19H90.749V11.5049C90.749 10.9515 90.7246 10.4225 90.6758 9.91797C90.627 9.41341 90.513 8.96582 90.334 8.5752C90.1549 8.18457 89.9108 7.88346 89.6016 7.67188C89.2923 7.44401 88.861 7.33008 88.3076 7.33008C88.0798 7.33008 87.7705 7.37077 87.3799 7.45215C87.0055 7.51725 86.6393 7.63118 86.2812 7.79395V5.91406C86.7207 5.6862 87.1927 5.49089 87.6973 5.32812C88.2181 5.16536 88.7227 5.08398 89.2109 5.08398C89.9434 5.08398 90.5618 5.23861 91.0664 5.54785C91.571 5.84082 92.0755 6.23958 92.5801 6.74414ZM112.917 3.79004C112.836 3.75749 112.738 3.70052 112.624 3.61914C112.51 3.53776 112.347 3.46452 112.136 3.39941C111.924 3.31803 111.656 3.25293 111.33 3.2041C111.005 3.15527 110.59 3.14714 110.085 3.17969V0.713867C110.801 0.730143 111.525 0.811523 112.258 0.958008C113.007 1.08822 113.609 1.2998 114.064 1.59277C113.967 1.80436 113.853 2.04036 113.723 2.30078C113.592 2.54492 113.47 2.78092 113.356 3.00879C113.243 3.22038 113.145 3.39941 113.063 3.5459C112.982 3.69238 112.933 3.77376 112.917 3.79004ZM104.494 5.74316C104.494 5.02702 104.616 4.38411 104.86 3.81445C105.104 3.24479 105.43 2.74837 105.837 2.3252C106.26 1.88574 106.748 1.54395 107.302 1.2998C107.871 1.03939 108.465 0.86849 109.084 0.787109V3.35059C108.563 3.52962 108.132 3.84701 107.79 4.30273C107.448 4.74219 107.277 5.18978 107.277 5.64551C107.277 6.28027 107.448 6.79297 107.79 7.18359C108.132 7.57422 108.563 7.91602 109.084 8.20898V10.9922C108.547 10.7318 108.01 10.4551 107.473 10.1621C106.936 9.85286 106.447 9.49479 106.008 9.08789C105.568 8.68099 105.202 8.20898 104.909 7.67188C104.632 7.13477 104.494 6.49186 104.494 5.74316ZM104.885 15.7041C105.113 15.8343 105.397 15.9645 105.739 16.0947C106.097 16.2087 106.464 16.3226 106.838 16.4365C107.212 16.5342 107.587 16.6156 107.961 16.6807C108.335 16.7458 108.685 16.7783 109.011 16.7783H109.084V19.0977H109.035C108.645 19.0977 108.238 19.0732 107.814 19.0244C107.408 18.9919 106.993 18.9268 106.569 18.8291C106.146 18.7314 105.739 18.6012 105.349 18.4385C104.974 18.2594 104.649 18.0479 104.372 17.8037L104.885 15.7041ZM110.085 8.69727C110.622 8.94141 111.167 9.20182 111.721 9.47852C112.29 9.75521 112.803 10.097 113.259 10.5039C113.715 10.8945 114.089 11.3747 114.382 11.9443C114.675 12.514 114.821 13.222 114.821 14.0684C114.821 14.6543 114.707 15.224 114.479 15.7773C114.268 16.3307 113.959 16.8353 113.552 17.291C113.161 17.7305 112.673 18.1048 112.087 18.4141C111.501 18.7233 110.834 18.9268 110.085 19.0244V16.6807C111.42 16.3551 112.087 15.4681 112.087 14.0195C112.087 13.4499 111.9 12.9779 111.525 12.6035C111.151 12.2292 110.671 11.8792 110.085 11.5537V8.69727Z" fill="#A18A68"/>
<path d="M131.618 1.00684V19H128.688V10.8945H121.901V8.89258H128.688V1.00684H131.618ZM117.922 1.00684H120.9V19H117.922V1.00684ZM135.793 9.91797C135.793 8.4694 135.964 7.19173 136.306 6.08496C136.664 4.96191 137.152 4.0179 137.771 3.25293C138.405 2.47168 139.146 1.8776 139.992 1.4707C140.855 1.04753 141.791 0.803385 142.8 0.738281V3.17969C142.246 3.24479 141.726 3.41569 141.237 3.69238C140.749 3.96908 140.326 4.37598 139.968 4.91309C139.61 5.4502 139.325 6.13379 139.113 6.96387C138.902 7.79395 138.788 8.77865 138.771 9.91797C138.788 11.0736 138.902 12.0664 139.113 12.8965C139.325 13.7103 139.61 14.3939 139.968 14.9473C140.342 15.5007 140.773 15.9238 141.262 16.2168C141.75 16.4935 142.263 16.6562 142.8 16.7051V19.1221C141.807 19.057 140.879 18.821 140.017 18.4141C139.154 17.9909 138.405 17.3968 137.771 16.6318C137.152 15.8506 136.664 14.8984 136.306 13.7754C135.964 12.6523 135.793 11.3665 135.793 9.91797ZM143.776 0.738281C144.769 0.787109 145.689 1.02311 146.535 1.44629C147.398 1.86947 148.138 2.47168 148.757 3.25293C149.392 4.0179 149.888 4.96191 150.246 6.08496C150.604 7.19173 150.783 8.4694 150.783 9.91797C150.783 11.3665 150.604 12.6523 150.246 13.7754C149.888 14.8984 149.392 15.8506 148.757 16.6318C148.138 17.3968 147.406 17.9909 146.56 18.4141C145.713 18.821 144.785 19.057 143.776 19.1221V16.7051C144.33 16.64 144.851 16.4691 145.339 16.1924C145.827 15.8994 146.25 15.4844 146.608 14.9473C146.966 14.3939 147.251 13.7103 147.463 12.8965C147.674 12.0664 147.788 11.0736 147.805 9.91797C147.788 8.76237 147.674 7.77767 147.463 6.96387C147.251 6.13379 146.958 5.4502 146.584 4.91309C146.226 4.3597 145.803 3.94466 145.314 3.66797C144.826 3.375 144.313 3.2041 143.776 3.15527V0.738281ZM154.885 1.00684H157.814V19H154.885V1.00684ZM160.061 1.00684C160.826 1.00684 161.582 1.12891 162.331 1.37305C163.08 1.61719 163.747 1.9834 164.333 2.47168C164.935 2.95996 165.415 3.55404 165.773 4.25391C166.148 4.9375 166.335 5.71061 166.335 6.57324C166.335 7.4847 166.18 8.31478 165.871 9.06348C165.562 9.7959 165.131 10.4144 164.577 10.9189C164.024 11.4235 163.356 11.8141 162.575 12.0908C161.794 12.3675 160.931 12.5059 159.987 12.5059H158.815V10.3574H160.5C160.858 10.3574 161.208 10.3005 161.55 10.1865C161.908 10.0563 162.233 9.85286 162.526 9.57617C162.819 9.29948 163.055 8.91699 163.234 8.42871C163.413 7.92415 163.503 7.30566 163.503 6.57324C163.503 6.28027 163.462 5.94661 163.381 5.57227C163.299 5.18164 163.129 4.81543 162.868 4.47363C162.624 4.11556 162.274 3.82259 161.818 3.59473C161.363 3.35059 160.76 3.22852 160.012 3.22852H158.815V1.00684H160.061ZM169.655 1.00684H172.585V19H169.655V1.00684ZM174.831 1.00684C175.596 1.00684 176.353 1.12891 177.102 1.37305C177.85 1.61719 178.518 1.9834 179.104 2.47168C179.706 2.95996 180.186 3.55404 180.544 4.25391C180.918 4.9375 181.105 5.71061 181.105 6.57324C181.105 7.4847 180.951 8.31478 180.642 9.06348C180.332 9.7959 179.901 10.4144 179.348 10.9189C178.794 11.4235 178.127 11.8141 177.346 12.0908C176.564 12.3675 175.702 12.5059 174.758 12.5059H173.586V10.3574H175.271C175.629 10.3574 175.979 10.3005 176.32 10.1865C176.678 10.0563 177.004 9.85286 177.297 9.57617C177.59 9.29948 177.826 8.91699 178.005 8.42871C178.184 7.92415 178.273 7.30566 178.273 6.57324C178.273 6.28027 178.233 5.94661 178.151 5.57227C178.07 5.18164 177.899 4.81543 177.639 4.47363C177.395 4.11556 177.045 3.82259 176.589 3.59473C176.133 3.35059 175.531 3.22852 174.782 3.22852H173.586V1.00684H174.831ZM184.523 1.00684H187.502V19H184.523V1.00684ZM195.021 10.8945H188.503V8.89258H195.021V10.8945ZM188.503 16.7783H195.778V19H188.503V16.7783ZM195.778 1.00684V3.22852H188.503V1.00684H195.778Z" fill="black"/>
</svg>
