<svg width="21" height="21" viewBox="0 0 21 21" fill="none" xmlns="http://www.w3.org/2000/svg">
<g clip-path="url(#clip0_165_5)">
<path d="M10.4678 20.5V19.25H18.4741C18.6658 19.25 18.842 19.17 19.0028 19.01C19.1637 18.85 19.2437 18.6733 19.2428 18.48V2.52C19.2428 2.3275 19.1628 2.15083 19.0028 1.99C18.8428 1.82917 18.6662 1.74917 18.4728 1.75H10.4691V0.5H18.4741C19.0491 0.5 19.5291 0.692916 19.9141 1.07875C20.2991 1.46458 20.492 1.945 20.4928 2.52V18.4812C20.4928 19.0562 20.2999 19.5367 19.9141 19.9225C19.5283 20.3083 19.0483 20.5008 18.4741 20.5H10.4678ZM9.58035 14.9237L8.7016 14.0237L11.6016 11.125H0.516602V9.875H11.6016L8.7016 6.975L9.5791 6.0775L14.0028 10.5L9.58035 14.9237Z" fill="black"/>
</g>
<defs>
<clipPath id="clip0_165_5">
<rect width="21" height="21" fill="white"/>
</clipPath>
</defs>
</svg>
